<svg xmlns="http://www.w3.org/2000/svg" width="108" height="25"><g fill="none"><path fill="#FFF" d="M34 18.1a3.255 3.255 0 00-.78-.1H9.329C7.49 18 6 19.567 6 21.5S7.49 25 9.329 25h23.89c.263.002.525-.028.781-.09V18.1z"/><path fill="#FCD235" d="M28 9.1a3.069 3.069 0 00-.786-.1H3.324C1.486 9.003 0 10.57 0 12.5 0 14.433 1.49 16 3.329 16h23.89a3.07 3.07 0 00.781-.112V9.1z"/><path fill="#FFF" d="M34 .1a3.265 3.265 0 00-.78-.1H9.329c-.887 0-1.737.37-2.361 1.03A3.578 3.578 0 006 3.51C6 5.438 7.49 7 9.329 7h23.89c.264-.002.525-.035.781-.1V.1zm12 1.77h-5.941v2.597h5.377v1.79h-5.377V9.13h5.91V11H38V0h8zM53.05 0H55v10.814h-1.887V9.72a2.872 2.872 0 01-2.518 1.276 3.266 3.266 0 01-2.614-1.1 4.34 4.34 0 01-.975-2.973 4.397 4.397 0 01.975-2.995 3.254 3.254 0 012.614-1.136 2.82 2.82 0 012.454 1.203V0zm-2.01 9.418a1.875 1.875 0 001.516-.657 2.834 2.834 0 00.53-1.864c0-1.641-.774-2.522-2.056-2.522-1.283 0-2.041.938-2.041 2.579a2.76 2.76 0 00.53 1.839c.383.426.943.656 1.521.625zM62.096 3.01H64v7.807h-1.842V9.681A2.792 2.792 0 0159.711 11C58.071 11 57 10.004 57 8.188V3h1.899v4.855c0 .986.48 1.484 1.464 1.484.983 0 1.733-.68 1.733-1.966V3.01zm4.017 6.89c-.774-.793-1.172-1.835-1.106-2.898-.065-1.068.333-2.116 1.106-2.917.78-.736 1.867-1.13 2.985-1.081 2.172 0 3.626 1.142 3.869 2.933h-2.029c-.125-.829-.925-1.428-1.835-1.375-1.244 0-2.034.827-2.034 2.44 0 1.614.807 2.441 2.034 2.441.954.059 1.783-.593 1.868-1.466H73c-.205 1.852-1.758 3.019-3.87 3.019-1.13.05-2.23-.35-3.017-1.096zm13.835.914a2.345 2.345 0 01-.223-.934c-.634.766-1.653 1.185-2.703 1.112-1.818 0-3.022-.827-3.022-2.294 0-1.466 1.076-2.192 3.217-2.38l1.27-.106c.826-.102 1.188-.325 1.188-.873 0-.634-.407-.944-1.527-.944-1.12 0-1.673.31-1.74 1.213H74.39C74.502 3.873 75.773 3 78.16 3s3.495.771 3.495 2.293v4.06a2.407 2.407 0 00.346 1.45l-2.052.011zm-.273-3.044V7.1c-.276.191-.611.3-.959.31l-1.115.121c-1.115.117-1.51.457-1.51 1.091 0 .634.49 1.015 1.416 1.015 1.22.02 2.168-.599 2.168-1.842V7.77zM87 4.67h-1.67v4.165c0 .512.261.67.957.67h.696v1.434c-.5.046-.857.061-1.069.061-1.804 0-2.611-.583-2.611-1.97V4.67H82V3.235h1.303V1h2.027v2.236H87V4.67zM88 11V2.928h2V11h-2zm0-9.149V0h1.967v1.851H88zm8.034 9.143a3.91 3.91 0 01-2.918-1.075 3.888 3.888 0 01-1.111-2.91 3.893 3.893 0 011.111-2.916 4.372 4.372 0 015.783 0 3.967 3.967 0 011.096 2.93A3.917 3.917 0 0198.9 9.935a3.914 3.914 0 01-2.865 1.06zm2.035-4.011c0-1.59-.772-2.467-2.035-2.467-1.263 0-2.088.877-2.088 2.467s.762 2.467 2.04 2.467c1.28 0 2.057-.877 2.057-2.467h.026zM108 5.816V11h-1.899V6.132c0-.985-.48-1.483-1.464-1.483-.983 0-1.733.68-1.733 1.965v4.37H101V3.208h1.868v1.094a2.782 2.782 0 012.426-1.301C106.944 3 108 4 108 5.816zM38 25v-8.072h2V25h-2zm0-9.149V14h1.984v1.851H38zM49 18.8V24h-1.899v-4.884a1.315 1.315 0 00-.363-1.11 1.3 1.3 0 00-1.1-.377c-.922 0-1.734.686-1.734 1.971v4.384H42v-7.801h1.842v1.118a2.78 2.78 0 012.426-1.3c1.677-.02 2.732.962 2.732 2.798zM61.717 14H64l-4.163 11h-2.574L53 14h2.35l2.11 5.685a90.944 90.944 0 011.118 3.429c.263-.938.621-2.083 1.12-3.429L61.717 14zM65 25v-8.072h2V25h-2zm0-9.149V14h1.967v1.851H65zm11 5.727h-6.048c.14 1.318.909 1.969 2.097 1.969.805.06 1.557-.383 1.854-1.094h1.893c-.425 1.557-1.834 2.544-3.764 2.544a3.978 3.978 0 01-2.913-1.099 3.885 3.885 0 01-1.113-2.89 3.939 3.939 0 011.075-2.91 3.939 3.939 0 012.903-1.094 3.833 3.833 0 012.914 1.14 4.18 4.18 0 011.075 2.996l.027.438zm-6.048-1.308h4.059c-.172-1.114-.893-1.826-2.038-1.826-1.145 0-1.822.595-2.021 1.826zM85 18.8V24h-1.893v-4.884a1.313 1.313 0 00-.364-1.11 1.304 1.304 0 00-1.103-.377c-.918 0-1.737.686-1.737 1.971v4.384H78v-7.8h1.84V17.3a2.793 2.793 0 012.438-1.3c1.664-.02 2.722.962 2.722 2.798zm8 0V24h-1.896v-4.884a1.314 1.314 0 00-.364-1.11 1.303 1.303 0 00-1.103-.377c-.917 0-1.735.686-1.735 1.971v4.384H86v-7.8h1.84V17.3a2.79 2.79 0 012.435-1.3c1.663-.02 2.725.962 2.725 2.798zm6.965 6.014a2.419 2.419 0 01-.23-.934c-.632.767-1.653 1.186-2.705 1.111-1.822 0-3.03-.827-3.03-2.294 0-1.468 1.073-2.189 3.226-2.382l1.269-.106c.833-.102 1.19-.325 1.19-.874 0-.634-.408-.944-1.531-.944-1.124 0-1.677.31-1.744 1.214h-2.035c.111-1.732 1.38-2.605 3.779-2.605 2.398 0 3.505.767 3.505 2.295v4.062a2.398 2.398 0 00.341 1.452l-2.035.005zm-.28-3.047v-.67a1.821 1.821 0 01-.961.315l-1.118.117c-1.118.117-1.515.457-1.515 1.096 0 .64.486 1.016 1.414 1.016 1.23.02 2.175-.604 2.175-1.848l.006-.026z"/></g></svg>